<?xml version="1.0" encoding="utf-8"?>
<!-- Generator: Adobe Illustrator 20.0.0, SVG Export Plug-In . SVG Version: 6.00 Build 0)  -->
<svg version="1.1" id="Camada_1" xmlns="http://www.w3.org/2000/svg" xmlns:xlink="http://www.w3.org/1999/xlink" x="0px" y="0px"
	 viewBox="0 0 500 500" style="enable-background:new 0 0 500 500;" xml:space="preserve">
<style type="text/css">
	.st0{fill:#EF8E00;}
	.st1{fill:#F5B043;}
	.st2{fill:#FFFFFF;stroke:#000000;stroke-width:6;stroke-linecap:round;stroke-linejoin:round;stroke-miterlimit:10;}
	.st3{fill:#FFFFFF;stroke:#000000;stroke-width:6;stroke-miterlimit:10;}
	.st4{fill:#67C1DC;}
	.st5{fill:none;stroke:#000000;stroke-width:6;stroke-linecap:round;stroke-linejoin:round;stroke-miterlimit:10;}
	.st6{fill:#EF8E00;stroke:#F5B043;stroke-width:2;stroke-miterlimit:10;}
	.st7{fill:#FFFFFF;stroke:#F5B043;stroke-width:7.5379;stroke-miterlimit:10;}
	.st8{fill:#FFFFFF;}
	.st9{fill:#EF8E00;stroke:#EF8E00;stroke-width:15;stroke-linecap:round;stroke-linejoin:round;stroke-miterlimit:10;}
	.st10{fill:none;stroke:#FFFFFF;stroke-miterlimit:10;}
	.st11{fill:none;stroke:#EF8E00;stroke-miterlimit:10;}
</style>
<g>
	<g>
		<polygon class="st1" points="253.3,128.1 53.7,128.1 53.7,189.5 253.3,189.5 253.3,214.6 321.1,158.8 253.3,103 		"/>
		<rect x="53.7" y="52.7" class="st1" width="110.3" height="61.4"/>
		<rect x="53.7" y="203.5" class="st1" width="110.3" height="61.4"/>
		<circle class="st7" cx="220.6" cy="275.7" r="25.8"/>
		<circle class="st7" cx="372.6" cy="275.7" r="25.8"/>
		<g>
			<path class="st8" d="M443.8,154.5h-34.2c-10.7,0-19.5-8.7-19.5-19.5V74.2c-18.4-14-53.4-24.6-53.4-24.6H159c0,0-4.6,0-8.2,3.8
				c-3.8,4-3.8,8.8-3.8,8.8v66l106.3,0V103l67.8,55.8l-67.8,55.8v-25.1l-106.3,0v74.1c0,0,0.1,4.6,3.8,8.3c3.8,3.8,7.8,3.8,7.8,3.8
				h26.1c0,0,0,0,0,0c0-20.1,16.3-36.5,36.5-36.5s35.2,16.3,35.2,36.5c0,0,80.3,0,80.3,0c0-20.1,15.1-36.5,35.2-36.5
				c20.1,0,36.5,16.3,36.5,36.5c0,0,0,0,0,0h26.1c0,0,3.8,0,7.8-3.8c3.8-3.7,3.8-8.3,3.8-8.3v-82.9
				C446.1,180.7,447.3,170.2,443.8,154.5z"/>
			<path class="st8" d="M409.7,145.7h31.9c-5.6-18.6-17.5-42-42.6-64.2V135C399,140.9,403.8,145.7,409.7,145.7z"/>
		</g>
	</g>
	<g>
		<g>
			<path class="st8" d="M99.9,397.9h-9.7v-46.4h26.6v8.1H99.9v12h15.7v8H99.9V397.9z"/>
			<path class="st8" d="M144.9,361.7c1.3,0,2.4,0.1,3.3,0.3l-0.7,9.1c-0.8-0.2-1.7-0.3-2.9-0.3c-3.1,0-5.5,0.8-7.2,2.4
				c-1.7,1.6-2.6,3.8-2.6,6.7v18.1h-9.7v-35.5h7.3l1.4,6h0.5c1.1-2,2.6-3.6,4.5-4.8C140.7,362.3,142.7,361.7,144.9,361.7z"/>
			<path class="st8" d="M170.7,398.5c-5.7,0-10.2-1.6-13.4-4.7c-3.2-3.2-4.8-7.6-4.8-13.4c0-5.9,1.5-10.5,4.5-13.8
				c3-3.2,7.1-4.9,12.3-4.9c5,0,8.9,1.4,11.7,4.3s4.2,6.8,4.2,11.8v4.7h-22.9c0.1,2.8,0.9,4.9,2.4,6.4c1.5,1.5,3.7,2.3,6.4,2.3
				c2.1,0,4.2-0.2,6.1-0.7s3.9-1.2,6-2.1v7.5c-1.7,0.8-3.5,1.5-5.4,1.9C175.8,398.3,173.5,398.5,170.7,398.5z M169.3,368.6
				c-2.1,0-3.7,0.7-4.8,2c-1.2,1.3-1.8,3.1-2,5.5h13.6c0-2.4-0.7-4.2-1.9-5.5C173,369.3,171.4,368.6,169.3,368.6z"/>
			<path class="st8" d="M208,390.8c1.7,0,3.7-0.4,6.1-1.1v7.2c-2.4,1.1-5.4,1.6-8.9,1.6c-3.9,0-6.7-1-8.5-2.9s-2.7-4.9-2.7-8.8
				v-17.1h-4.6v-4.1l5.3-3.2l2.8-7.5h6.2v7.6h9.9v7.3h-9.9v17.1c0,1.4,0.4,2.4,1.2,3C205.7,390.5,206.7,390.8,208,390.8z"/>
			<path class="st8" d="M237.3,398.5c-5.7,0-10.2-1.6-13.4-4.7c-3.2-3.2-4.8-7.6-4.8-13.4c0-5.9,1.5-10.5,4.5-13.8
				c3-3.2,7.1-4.9,12.3-4.9c5,0,8.9,1.4,11.7,4.3s4.2,6.8,4.2,11.8v4.7h-22.9c0.1,2.8,0.9,4.9,2.4,6.4c1.5,1.5,3.7,2.3,6.4,2.3
				c2.1,0,4.2-0.2,6.1-0.7s3.9-1.2,6-2.1v7.5c-1.7,0.8-3.5,1.5-5.4,1.9C242.4,398.3,240.1,398.5,237.3,398.5z M235.9,368.6
				c-2.1,0-3.7,0.7-4.8,2c-1.2,1.3-1.8,3.1-2,5.5h13.6c0-2.4-0.7-4.2-1.9-5.5C239.6,369.3,238,368.6,235.9,368.6z"/>
			<path class="st8" d="M287,397.9h-9.7v-46.4h26.6v8.1H287v12h15.7v8H287V397.9z"/>
			<path class="st8" d="M334.7,397.9l-1.9-4.8h-0.3c-1.6,2.1-3.3,3.5-5,4.3c-1.7,0.8-4,1.2-6.7,1.2c-3.4,0-6.1-1-8-2.9
				c-2-1.9-2.9-4.7-2.9-8.3c0-3.8,1.3-6.5,4-8.3c2.6-1.8,6.6-2.8,11.9-3l6.2-0.2v-1.6c0-3.6-1.8-5.4-5.5-5.4c-2.8,0-6.2,0.9-10,2.6
				l-3.2-6.5c4.1-2.1,8.6-3.2,13.6-3.2c4.8,0,8.4,1,11,3.1c2.5,2.1,3.8,5.2,3.8,9.5v23.6H334.7z M331.9,381.4l-3.7,0.1
				c-2.8,0.1-4.9,0.6-6.3,1.5c-1.4,0.9-2.1,2.3-2.1,4.3c0,2.7,1.6,4.1,4.7,4.1c2.2,0,4-0.6,5.4-1.9c1.3-1.3,2-3,2-5.1V381.4z
				 M321.1,358.5v-0.9c3.6-4.2,6.1-7.4,7.5-9.6h10.9v0.7c-1.1,1.1-3,2.7-5.6,4.9c-2.7,2.2-4.7,3.8-6.2,4.8H321.1z"/>
			<path class="st8" d="M365.9,398.5c-11,0-16.6-6.1-16.6-18.2c0-6,1.5-10.6,4.5-13.8c3-3.2,7.3-4.8,12.9-4.8c4.1,0,7.8,0.8,11,2.4
				l-2.9,7.5c-1.5-0.6-2.9-1.1-4.3-1.5c-1.3-0.4-2.6-0.6-3.9-0.6c-5,0-7.6,3.6-7.6,10.7c0,6.9,2.5,10.4,7.6,10.4
				c1.9,0,3.6-0.2,5.2-0.7s3.2-1.3,4.8-2.3v8.3c-1.6,1-3.1,1.7-4.7,2.1S368.3,398.5,365.9,398.5z"/>
			<path class="st8" d="M384.5,353.2c0-3.2,1.8-4.7,5.3-4.7c3.5,0,5.3,1.6,5.3,4.7c0,1.5-0.4,2.7-1.3,3.5c-0.9,0.8-2.2,1.3-4,1.3
				C386.2,358,384.5,356.4,384.5,353.2z M394.6,397.9h-9.7v-35.5h9.7V397.9z"/>
			<path class="st8" d="M414.4,397.9h-9.7v-49.4h9.7V397.9z"/>
		</g>
		<g>
			<path class="st8" d="M82.2,436.9c0,1.9-0.7,3.4-2.1,4.5c-1.4,1.1-3.3,1.7-5.6,1.7c-2.8,0-4.9-0.3-6.4-0.9v-1.6
				c1.6,0.7,3.7,1,6.3,1c1.9,0,3.4-0.4,4.5-1.3c1.1-0.9,1.6-2,1.6-3.4c0-0.9-0.2-1.6-0.5-2.1c-0.4-0.6-1-1.1-1.8-1.6
				c-0.8-0.5-2-1-3.6-1.5c-2.3-0.8-3.9-1.7-4.8-2.6c-0.9-0.9-1.3-2.2-1.3-3.7c0-1.7,0.7-3.1,2-4.2c1.3-1.1,3.1-1.6,5.2-1.6
				c2.1,0,4.2,0.4,6,1.2l-0.6,1.4c-1.9-0.8-3.7-1.2-5.4-1.2c-1.7,0-3,0.4-4,1.2S70,424,70,425.4c0,0.8,0.2,1.5,0.5,2.1
				c0.3,0.5,0.8,1,1.5,1.5c0.7,0.4,1.9,1,3.6,1.6c1.8,0.6,3.1,1.2,4,1.8c0.9,0.6,1.5,1.2,2,2C82,435,82.2,435.9,82.2,436.9z"/>
			<path class="st8" d="M88,425.8v11c0,1.7,0.4,3,1.1,3.7c0.7,0.8,1.8,1.2,3.3,1.2c2,0,3.5-0.5,4.5-1.5c1-1,1.4-2.7,1.4-5v-9.4h1.5
				v17h-1.3l-0.3-2.3h-0.1c-1.1,1.8-3.1,2.7-5.9,2.7c-3.9,0-5.8-2.1-5.8-6.2v-11.1H88z"/>
			<path class="st8" d="M115.8,442.8l-0.4-2.7h-0.1c-0.9,1.1-1.7,1.9-2.6,2.3c-0.9,0.5-2,0.7-3.2,0.7c-1.7,0-3-0.4-3.9-1.3
				c-0.9-0.9-1.4-2-1.4-3.5c0-1.7,0.7-2.9,2.1-3.9c1.4-0.9,3.4-1.4,6-1.5l3.2-0.1v-1.1c0-1.6-0.3-2.8-1-3.7
				c-0.7-0.8-1.7-1.2-3.2-1.2c-1.6,0-3.2,0.4-4.9,1.3l-0.6-1.3c1.9-0.9,3.7-1.3,5.5-1.3c1.9,0,3.3,0.5,4.2,1.5s1.4,2.5,1.4,4.5v11.3
				H115.8z M109.6,441.7c1.8,0,3.2-0.5,4.3-1.6c1-1,1.6-2.5,1.6-4.3v-1.7l-3,0.1c-2.4,0.1-4.1,0.5-5.1,1.1c-1,0.6-1.5,1.6-1.5,2.9
				c0,1.1,0.3,1.9,1,2.5C107.5,441.4,108.4,441.7,109.6,441.7z"/>
			<path class="st8" d="M152,442.8v-11.1c0-1.7-0.3-2.9-1-3.6c-0.6-0.8-1.6-1.1-3-1.1c-1.7,0-3,0.5-3.9,1.4c-0.8,1-1.2,2.5-1.2,4.5
				v10h-1.6v-11.6c0-2.9-1.3-4.3-3.9-4.3c-1.8,0-3.1,0.5-3.9,1.6c-0.8,1-1.2,2.7-1.2,5v9.4h-1.5v-17h1.3l0.3,2.3h0.1
				c0.5-0.8,1.1-1.5,2-2c0.9-0.5,1.8-0.7,2.9-0.7c2.7,0,4.4,1,5.2,3h0.1c0.6-1,1.3-1.7,2.2-2.2c0.9-0.5,2-0.8,3.2-0.8
				c1.9,0,3.2,0.5,4.2,1.5c0.9,1,1.4,2.6,1.4,4.7v11.1H152z"/>
			<path class="st8" d="M160.4,425.8v11c0,1.7,0.4,3,1.1,3.7c0.7,0.8,1.8,1.2,3.3,1.2c2,0,3.5-0.5,4.5-1.5c1-1,1.4-2.7,1.4-5v-9.4
				h1.5v17h-1.3l-0.3-2.3h-0.1c-1.1,1.8-3.1,2.7-5.9,2.7c-3.9,0-5.8-2.1-5.8-6.2v-11.1H160.4z"/>
			<path class="st8" d="M184.1,425.5c1.2,0,2.3,0.2,3.2,0.7c0.9,0.4,1.7,1.2,2.4,2.3h0.1c-0.1-1.3-0.1-2.6-0.1-3.9v-6.1h1.5v24.3h-1
				l-0.4-2.6h-0.1c-1.3,1.9-3.1,2.9-5.6,2.9c-2.3,0-4.1-0.7-5.4-2.2c-1.2-1.5-1.9-3.6-1.9-6.4c0-2.9,0.6-5.2,1.8-6.7
				C180,426.3,181.8,425.5,184.1,425.5z M184.1,426.9c-1.9,0-3.2,0.7-4.2,2c-0.9,1.3-1.4,3.2-1.4,5.7c0,4.8,1.9,7.2,5.6,7.2
				c1.9,0,3.3-0.6,4.2-1.7c0.9-1.1,1.3-3,1.3-5.5v-0.3c0-2.6-0.4-4.5-1.3-5.7C187.5,427.5,186.1,426.9,184.1,426.9z"/>
			<path class="st8" d="M207.3,442.8l-0.4-2.7h-0.1c-0.9,1.1-1.7,1.9-2.6,2.3c-0.9,0.5-2,0.7-3.2,0.7c-1.7,0-3-0.4-3.9-1.3
				c-0.9-0.9-1.4-2-1.4-3.5c0-1.7,0.7-2.9,2.1-3.9c1.4-0.9,3.4-1.4,6-1.5l3.2-0.1v-1.1c0-1.6-0.3-2.8-1-3.7
				c-0.7-0.8-1.7-1.2-3.2-1.2c-1.6,0-3.2,0.4-4.9,1.3l-0.6-1.3c1.9-0.9,3.7-1.3,5.5-1.3c1.9,0,3.3,0.5,4.2,1.5s1.4,2.5,1.4,4.5v11.3
				H207.3z M201,441.7c1.8,0,3.2-0.5,4.3-1.6c1-1,1.6-2.5,1.6-4.3v-1.7l-3,0.1c-2.4,0.1-4.1,0.5-5.1,1.1c-1,0.6-1.5,1.6-1.5,2.9
				c0,1.1,0.3,1.9,1,2.5C198.9,441.4,199.8,441.7,201,441.7z"/>
			<path class="st8" d="M225.7,442.8v-11c0-1.7-0.4-3-1.1-3.7c-0.7-0.8-1.8-1.2-3.3-1.2c-2,0-3.5,0.5-4.5,1.5c-0.9,1-1.4,2.7-1.4,5
				v9.4h-1.5v-17h1.3l0.3,2.3h0.1c1.1-1.8,3.1-2.7,5.9-2.7c3.9,0,5.8,2.1,5.8,6.2v11.1H225.7z"/>
			<path class="st8" d="M239.6,443.1c-2.4,0-4.3-0.8-5.7-2.3s-2.1-3.7-2.1-6.4c0-2.8,0.7-5,2.1-6.6c1.4-1.6,3.4-2.4,5.9-2.4
				c1.5,0,2.9,0.3,4.2,0.8l-0.4,1.4c-1.5-0.5-2.7-0.7-3.8-0.7c-2.1,0-3.7,0.6-4.7,1.9c-1.1,1.3-1.6,3.1-1.6,5.6
				c0,2.3,0.5,4.1,1.6,5.4c1.1,1.3,2.6,1.9,4.5,1.9c1.5,0,3-0.3,4.3-0.8v1.4C242.7,442.8,241.3,443.1,239.6,443.1z M241.2,447.3
				c0,1-0.4,1.8-1.1,2.4c-0.7,0.5-1.7,0.8-2.9,0.8c-0.7,0-1.2-0.1-1.5-0.2v-1.4c0.3,0.1,0.8,0.2,1.4,0.2c0.8,0,1.4-0.1,1.9-0.4
				c0.4-0.3,0.6-0.7,0.6-1.2c0-1-1-1.6-3-1.9l1.5-2.7h1.5l-1,1.8C240.4,445,241.2,445.9,241.2,447.3z"/>
			<path class="st8" d="M258.3,442.8l-0.4-2.7h-0.1c-0.9,1.1-1.7,1.9-2.6,2.3c-0.9,0.5-2,0.7-3.2,0.7c-1.7,0-3-0.4-3.9-1.3
				c-0.9-0.9-1.4-2-1.4-3.5c0-1.7,0.7-2.9,2.1-3.9c1.4-0.9,3.4-1.4,6-1.5l3.2-0.1v-1.1c0-1.6-0.3-2.8-1-3.7
				c-0.7-0.8-1.7-1.2-3.2-1.2c-1.6,0-3.2,0.4-4.9,1.3l-0.6-1.3c1.9-0.9,3.7-1.3,5.5-1.3c1.9,0,3.3,0.5,4.2,1.5s1.4,2.5,1.4,4.5v11.3
				H258.3z M252,441.7c1.8,0,3.2-0.5,4.3-1.6c1-1,1.6-2.5,1.6-4.3v-1.7l-3,0.1c-2.4,0.1-4.1,0.5-5.1,1.1c-1,0.6-1.5,1.6-1.5,2.9
				c0,1.1,0.3,1.9,1,2.5C249.9,441.4,250.9,441.7,252,441.7z"/>
			<path class="st8" d="M285.1,442.8v-11c0-1.7-0.4-3-1.1-3.7c-0.7-0.8-1.8-1.2-3.3-1.2c-2,0-3.5,0.5-4.5,1.5c-0.9,1-1.4,2.7-1.4,5
				v9.4h-1.5v-17h1.3l0.3,2.3h0.1c1.1-1.8,3.1-2.7,5.9-2.7c3.9,0,5.8,2.1,5.8,6.2v11.1H285.1z"/>
			<path class="st8" d="M293.5,425.8v11c0,1.7,0.4,3,1.1,3.7c0.7,0.8,1.8,1.2,3.3,1.2c2,0,3.5-0.5,4.5-1.5c1-1,1.4-2.7,1.4-5v-9.4
				h1.5v17H304l-0.3-2.3h-0.1c-1.1,1.8-3.1,2.7-5.9,2.7c-3.9,0-5.8-2.1-5.8-6.2v-11.1H293.5z"/>
			<path class="st8" d="M332.2,442.8v-11.1c0-1.7-0.3-2.9-1-3.6c-0.6-0.8-1.6-1.1-3-1.1c-1.7,0-3,0.5-3.9,1.4
				c-0.8,1-1.2,2.5-1.2,4.5v10h-1.6v-11.6c0-2.9-1.3-4.3-3.9-4.3c-1.8,0-3.1,0.5-3.9,1.6c-0.8,1-1.2,2.7-1.2,5v9.4H311v-17h1.3
				l0.3,2.3h0.1c0.5-0.8,1.1-1.5,2-2c0.9-0.5,1.8-0.7,2.9-0.7c2.7,0,4.4,1,5.2,3h0.1c0.6-1,1.3-1.7,2.2-2.2c0.9-0.5,2-0.8,3.2-0.8
				c1.9,0,3.2,0.5,4.2,1.5c0.9,1,1.4,2.6,1.4,4.7v11.1H332.2z"/>
			<path class="st8" d="M354.3,443.1c-2.4,0-4.3-0.8-5.7-2.3s-2.1-3.7-2.1-6.4c0-2.8,0.7-5,2.1-6.6c1.4-1.6,3.4-2.4,5.9-2.4
				c1.5,0,2.9,0.3,4.2,0.8l-0.4,1.4c-1.5-0.5-2.7-0.7-3.8-0.7c-2.1,0-3.7,0.6-4.7,1.9c-1.1,1.3-1.6,3.1-1.6,5.6
				c0,2.3,0.5,4.1,1.6,5.4c1.1,1.3,2.6,1.9,4.5,1.9c1.5,0,3-0.3,4.3-0.8v1.4C357.5,442.8,356.1,443.1,354.3,443.1z"/>
			<path class="st8" d="M364.3,442.8h-1.5v-24.3h1.5V442.8z"/>
			<path class="st8" d="M369.8,421.1c0-1,0.3-1.5,1-1.5c0.3,0,0.6,0.1,0.8,0.4c0.2,0.3,0.3,0.6,0.3,1.1c0,0.5-0.1,0.8-0.3,1.1
				c-0.2,0.3-0.4,0.4-0.8,0.4C370.1,422.6,369.8,422.1,369.8,421.1z M371.5,442.8H370v-17h1.5V442.8z"/>
			<path class="st8" d="M383.3,443.1c-2.2,0-4-0.7-5.2-2.2c-1.2-1.5-1.8-3.6-1.8-6.4c0-2.9,0.6-5.1,1.8-6.6c1.2-1.6,3-2.4,5.3-2.4
				c2.5,0,4.3,0.9,5.5,2.7h0.1l0.3-2.4h1.3v24.7H389V444c0-1.3,0-2.6,0.1-3.9H389C387.8,442.1,385.9,443.1,383.3,443.1z
				 M383.3,441.7c2.1,0,3.5-0.6,4.4-1.7c0.9-1.1,1.3-3,1.3-5.7v-0.2c0-2.6-0.4-4.4-1.3-5.5c-0.9-1.1-2.3-1.7-4.2-1.7
				c-1.8,0-3.2,0.6-4.2,1.9c-1,1.3-1.4,3.2-1.4,5.7c0,2.4,0.5,4.2,1.4,5.4C380.2,441.1,381.5,441.7,383.3,441.7z"/>
			<path class="st8" d="M397.6,425.8v11c0,1.7,0.4,3,1.1,3.7c0.7,0.8,1.8,1.2,3.3,1.2c2,0,3.5-0.5,4.5-1.5c1-1,1.4-2.7,1.4-5v-9.4
				h1.5v17h-1.3l-0.3-2.3h-0.1c-1.1,1.8-3.1,2.7-5.9,2.7c-3.9,0-5.8-2.1-5.8-6.2v-11.1H397.6z"/>
			<path class="st8" d="M422,443.1c-2.5,0-4.4-0.8-5.8-2.3c-1.4-1.5-2.1-3.7-2.1-6.4c0-2.7,0.7-4.9,2-6.5c1.3-1.6,3.1-2.4,5.4-2.4
				c2,0,3.6,0.7,4.7,2.1c1.2,1.4,1.7,3.3,1.7,5.7v1.2h-12.2c0,2.3,0.6,4.1,1.6,5.3c1.1,1.2,2.6,1.8,4.6,1.8c1,0,1.8-0.1,2.6-0.2
				c0.7-0.1,1.7-0.4,2.8-0.9v1.4c-1,0.4-1.8,0.7-2.7,0.9S423,443.1,422,443.1z M421.6,426.9c-1.6,0-2.9,0.5-3.9,1.6
				c-1,1.1-1.6,2.6-1.7,4.7h10.5c0-2-0.4-3.5-1.3-4.6C424.2,427.4,423.1,426.9,421.6,426.9z"/>
			<path class="st8" d="M432.4,441.6c0-1,0.4-1.5,1.2-1.5c0.9,0,1.3,0.5,1.3,1.5c0,1-0.4,1.5-1.3,1.5
				C432.8,443.1,432.4,442.6,432.4,441.6z"/>
		</g>
	</g>
</g>
</svg>
