<?xml version="1.0" encoding="utf-8"?>
<!-- Generator: Adobe Illustrator 20.0.0, SVG Export Plug-In . SVG Version: 6.00 Build 0)  -->
<svg version="1.1" id="Camada_1" xmlns="http://www.w3.org/2000/svg" xmlns:xlink="http://www.w3.org/1999/xlink" x="0px" y="0px"
	 viewBox="0 0 299.2 256.7" style="enable-background:new 0 0 299.2 256.7;" xml:space="preserve">
<style type="text/css">
	.st0{fill:#EF8E00;}
	.st1{fill:#EF8E00;stroke:#EF8E00;stroke-width:15;stroke-linecap:round;stroke-linejoin:round;stroke-miterlimit:10;}
	.st2{fill:#F5B043;}
	.st3{fill:#FFFFFF;stroke:#000000;stroke-width:6;stroke-linecap:round;stroke-linejoin:round;stroke-miterlimit:10;}
	.st4{fill:#FFFFFF;stroke:#000000;stroke-width:6;stroke-miterlimit:10;}
	.st5{fill:#67C1DC;}
	.st6{fill:none;stroke:#000000;stroke-width:6;stroke-linecap:round;stroke-linejoin:round;stroke-miterlimit:10;}
	.st7{fill:#EF8E00;stroke:#F5B043;stroke-width:2;stroke-miterlimit:10;}
	.st8{fill:#FFFFFF;stroke:#F5B043;stroke-width:7.5379;stroke-miterlimit:10;}
	.st9{fill:#FFFFFF;}
	.st10{fill:none;stroke:#FFFFFF;stroke-miterlimit:10;}
</style>
<rect x="-99" y="416" class="st0" width="497.3" height="499.9"/>
<rect x="-1205" y="-107.6" class="st1" width="472" height="472"/>
<g>
	<g>
		<polygon class="st2" points="-1468.8,88.7 -1513.9,87.6 -1717.7,87.7 -1717.7,136.5 -1513.9,136.5 -1468.8,137.5 -1468.8,157.5 
			-1414.8,113.1 -1468.8,68.7 		"/>
		<rect x="-1717.7" y="27.7" class="st2" width="177.8" height="48.9"/>
		<rect x="-1717.7" y="147.7" class="st2" width="177.8" height="48.9"/>
	</g>
	<path class="st3" d="M-1359.3,46.1c-14.5-11.4-43-20-43-20h-141.5c0,0-3.7,0-6.5,3c-3,3.2-3,7-3,7v52.6l84.6,0v-20l53.9,44.4
		l-53.9,44.4v-20l-84.6,0v59c0,0,0.1,3.6,3,6.6c3,3,6.2,3,6.2,3h20.8c0,0,0,0,0,0c0-16,13-29,29-29c16,0,28,13,28,29
		c0,0,63.9,0,63.9,0c0-16,12-29,28-29c16,0,29,13,29,29c0,0,0,0,0,0h20.8c0,0,3,0,6.2-3c3.1-2.9,3-6.6,3-6.6v-66
		C-1315.3,130.5-1310.3,84.6-1359.3,46.1z"/>
	<g>
		<circle class="st4" cx="-1494.8" cy="206.1" r="20.5"/>
		<circle class="st5" cx="-1494.8" cy="206.1" r="14.1"/>
	</g>
	<g>
		<circle class="st4" cx="-1373.8" cy="206.1" r="20.5"/>
		<circle class="st5" cx="-1373.8" cy="206.1" r="14.1"/>
	</g>
	<path class="st6" d="M-1319,106.1h-25.4c-6.6,0-12-5.4-12-12V48.8"/>
</g>
<path class="st7" d="M-258.4,867.3h-300c-27.5,0-50-22.5-50-50v-300c0-27.5,22.5-50,50-50h300c27.5,0,50,22.5,50,50v300
	C-208.4,844.8-230.9,867.3-258.4,867.3z"/>
<g>
	<g>
		<polygon class="st2" points="-965.7,6.5 -1165.3,6.5 -1165.3,67.9 -965.7,67.8 -965.7,93 -897.9,37.2 -965.7,-18.7 		"/>
		<rect x="-1165.3" y="-68.9" class="st2" width="110.3" height="61.4"/>
		<rect x="-1165.3" y="81.8" class="st2" width="110.3" height="61.4"/>
		<circle class="st8" cx="-998.4" cy="154" r="25.8"/>
		<circle class="st8" cx="-846.4" cy="154" r="25.8"/>
		<g>
			<path class="st9" d="M-775.2,32.8h-34.2c-10.7,0-19.5-8.7-19.5-19.5v-60.8c-18.4-14-53.4-24.6-53.4-24.6H-1060c0,0-4.6,0-8.2,3.8
				c-3.8,4-3.8,8.8-3.8,8.8v66l106.3,0v-25.1l67.8,55.8L-965.7,93V67.8l-106.3,0V142c0,0,0.1,4.6,3.8,8.3c3.8,3.8,7.8,3.8,7.8,3.8
				h26.1c0,0,0,0,0,0c0-20.1,16.3-36.5,36.5-36.5c20.1,0,35.2,16.3,35.2,36.5c0,0,80.3,0,80.3,0c0-20.1,15.1-36.5,35.2-36.5
				c20.1,0,36.5,16.3,36.5,36.5c0,0,0,0,0,0h26.1c0,0,3.8,0,7.8-3.8c3.8-3.7,3.8-8.3,3.8-8.3V59.1
				C-772.9,59.1-771.8,48.6-775.2,32.8z"/>
			<path class="st9" d="M-809.4,24h31.9C-783,5.5-794.9-18-820-40.2v53.6C-820,19.2-815.2,24-809.4,24z"/>
		</g>
	</g>
	<g>
		<g>
			<path class="st9" d="M-1119.1,276.2h-9.7v-46.4h26.6v8.1h-16.9v12h15.7v8h-15.7V276.2z"/>
			<path class="st9" d="M-1074.1,240.1c1.3,0,2.4,0.1,3.3,0.3l-0.7,9.1c-0.8-0.2-1.7-0.3-2.9-0.3c-3.1,0-5.5,0.8-7.2,2.4
				c-1.7,1.6-2.6,3.8-2.6,6.7v18.1h-9.7v-35.5h7.3l1.4,6h0.5c1.1-2,2.6-3.6,4.5-4.8C-1078.3,240.7-1076.3,240.1-1074.1,240.1z"/>
			<path class="st9" d="M-1048.3,276.9c-5.7,0-10.2-1.6-13.4-4.7c-3.2-3.2-4.8-7.6-4.8-13.4c0-5.9,1.5-10.5,4.5-13.8
				c3-3.2,7.1-4.9,12.3-4.9c5,0,8.9,1.4,11.7,4.3s4.2,6.8,4.2,11.8v4.7h-22.9c0.1,2.8,0.9,4.9,2.4,6.4c1.5,1.5,3.7,2.3,6.4,2.3
				c2.1,0,4.2-0.2,6.1-0.7s3.9-1.2,6-2.1v7.5c-1.7,0.8-3.5,1.5-5.4,1.9C-1043.2,276.7-1045.6,276.9-1048.3,276.9z M-1049.7,247
				c-2.1,0-3.7,0.7-4.8,2c-1.2,1.3-1.8,3.1-2,5.5h13.6c0-2.4-0.7-4.2-1.9-5.5C-1046,247.6-1047.6,247-1049.7,247z"/>
			<path class="st9" d="M-1011,269.2c1.7,0,3.7-0.4,6.1-1.1v7.2c-2.4,1.1-5.4,1.6-8.9,1.6c-3.9,0-6.7-1-8.5-2.9s-2.7-4.9-2.7-8.8
				V248h-4.6v-4.1l5.3-3.2l2.8-7.5h6.2v7.6h9.9v7.3h-9.9v17.1c0,1.4,0.4,2.4,1.2,3C-1013.3,268.8-1012.3,269.2-1011,269.2z"/>
			<path class="st9" d="M-981.7,276.9c-5.7,0-10.2-1.6-13.4-4.7c-3.2-3.2-4.8-7.6-4.8-13.4c0-5.9,1.5-10.5,4.5-13.8
				c3-3.2,7.1-4.9,12.3-4.9c5,0,8.9,1.4,11.7,4.3s4.2,6.8,4.2,11.8v4.7h-22.9c0.1,2.8,0.9,4.9,2.4,6.4c1.5,1.5,3.7,2.3,6.4,2.3
				c2.1,0,4.2-0.2,6.1-0.7s3.9-1.2,6-2.1v7.5c-1.7,0.8-3.5,1.5-5.4,1.9C-976.6,276.7-978.9,276.9-981.7,276.9z M-983.1,247
				c-2.1,0-3.7,0.7-4.8,2c-1.2,1.3-1.8,3.1-2,5.5h13.6c0-2.4-0.7-4.2-1.9-5.5C-979.4,247.6-981,247-983.1,247z"/>
			<path class="st9" d="M-932,276.2h-9.7v-46.4h26.6v8.1H-932v12h15.7v8H-932V276.2z"/>
			<path class="st9" d="M-884.3,276.2l-1.9-4.8h-0.3c-1.6,2.1-3.3,3.5-5,4.3c-1.7,0.8-4,1.2-6.7,1.2c-3.4,0-6.1-1-8-2.9
				c-2-1.9-2.9-4.7-2.9-8.3c0-3.8,1.3-6.5,4-8.3c2.6-1.8,6.6-2.8,11.9-3l6.2-0.2v-1.6c0-3.6-1.8-5.4-5.5-5.4c-2.8,0-6.2,0.9-10,2.6
				l-3.2-6.5c4.1-2.1,8.6-3.2,13.6-3.2c4.8,0,8.4,1,11,3.1c2.5,2.1,3.8,5.2,3.8,9.5v23.6H-884.3z M-887.1,259.8l-3.7,0.1
				c-2.8,0.1-4.9,0.6-6.3,1.5c-1.4,0.9-2.1,2.3-2.1,4.3c0,2.7,1.6,4.1,4.7,4.1c2.2,0,4-0.6,5.4-1.9c1.3-1.3,2-3,2-5.1V259.8z
				 M-897.9,236.8V236c3.6-4.2,6.1-7.4,7.5-9.6h10.9v0.7c-1.1,1.1-3,2.7-5.6,4.9c-2.7,2.2-4.7,3.8-6.2,4.8H-897.9z"/>
			<path class="st9" d="M-853.1,276.9c-11,0-16.6-6.1-16.6-18.2c0-6,1.5-10.6,4.5-13.8c3-3.2,7.3-4.8,12.9-4.8c4.1,0,7.8,0.8,11,2.4
				l-2.9,7.5c-1.5-0.6-2.9-1.1-4.3-1.5c-1.3-0.4-2.6-0.6-3.9-0.6c-5,0-7.6,3.6-7.6,10.7c0,6.9,2.5,10.4,7.6,10.4
				c1.9,0,3.6-0.2,5.2-0.7s3.2-1.3,4.8-2.3v8.3c-1.6,1-3.1,1.7-4.7,2.1S-850.7,276.9-853.1,276.9z"/>
			<path class="st9" d="M-834.5,231.6c0-3.2,1.8-4.7,5.3-4.7c3.5,0,5.3,1.6,5.3,4.7c0,1.5-0.4,2.7-1.3,3.5c-0.9,0.8-2.2,1.3-4,1.3
				C-832.8,236.3-834.5,234.7-834.5,231.6z M-824.5,276.2h-9.7v-35.5h9.7V276.2z"/>
			<path class="st9" d="M-804.6,276.2h-9.7v-49.4h9.7V276.2z"/>
		</g>
		<g>
			<path class="st9" d="M-1136.8,315.3c0,1.9-0.7,3.4-2.1,4.5c-1.4,1.1-3.3,1.7-5.6,1.7c-2.8,0-4.9-0.3-6.4-0.9v-1.6
				c1.6,0.7,3.7,1,6.3,1c1.9,0,3.4-0.4,4.5-1.3c1.1-0.9,1.6-2,1.6-3.4c0-0.9-0.2-1.6-0.5-2.1c-0.4-0.6-1-1.1-1.8-1.6
				c-0.8-0.5-2-1-3.6-1.5c-2.3-0.8-3.9-1.7-4.8-2.6c-0.9-0.9-1.3-2.2-1.3-3.7c0-1.7,0.7-3.1,2-4.2c1.3-1.1,3.1-1.6,5.2-1.6
				c2.1,0,4.2,0.4,6,1.2l-0.6,1.4c-1.9-0.8-3.7-1.2-5.4-1.2c-1.7,0-3,0.4-4,1.2s-1.5,1.8-1.5,3.2c0,0.8,0.2,1.5,0.5,2.1
				c0.3,0.5,0.8,1,1.5,1.5c0.7,0.4,1.9,1,3.6,1.6c1.8,0.6,3.1,1.2,4,1.8c0.9,0.6,1.5,1.2,2,2C-1137,313.3-1136.8,314.2-1136.8,315.3
				z"/>
			<path class="st9" d="M-1131,304.2v11c0,1.7,0.4,3,1.1,3.7c0.7,0.8,1.8,1.2,3.3,1.2c2,0,3.5-0.5,4.5-1.5c1-1,1.4-2.7,1.4-5v-9.4
				h1.5v17h-1.3l-0.3-2.3h-0.1c-1.1,1.8-3.1,2.7-5.9,2.7c-3.9,0-5.8-2.1-5.8-6.2v-11.1H-1131z"/>
			<path class="st9" d="M-1103.2,321.2l-0.4-2.7h-0.1c-0.9,1.1-1.7,1.9-2.6,2.3c-0.9,0.5-2,0.7-3.2,0.7c-1.7,0-3-0.4-3.9-1.3
				c-0.9-0.9-1.4-2-1.4-3.5c0-1.7,0.7-2.9,2.1-3.9c1.4-0.9,3.4-1.4,6-1.5l3.2-0.1v-1.1c0-1.6-0.3-2.8-1-3.7
				c-0.7-0.8-1.7-1.2-3.2-1.2c-1.6,0-3.2,0.4-4.9,1.3l-0.6-1.3c1.9-0.9,3.7-1.3,5.5-1.3c1.9,0,3.3,0.5,4.2,1.5s1.4,2.5,1.4,4.5v11.3
				H-1103.2z M-1109.4,320.1c1.8,0,3.2-0.5,4.3-1.6c1-1,1.6-2.5,1.6-4.3v-1.7l-3,0.1c-2.4,0.1-4.1,0.5-5.1,1.1
				c-1,0.6-1.5,1.6-1.5,2.9c0,1.1,0.3,1.9,1,2.5C-1111.5,319.8-1110.6,320.1-1109.4,320.1z"/>
			<path class="st9" d="M-1067,321.2V310c0-1.7-0.3-2.9-1-3.6c-0.6-0.8-1.6-1.1-3-1.1c-1.7,0-3,0.5-3.9,1.4c-0.8,1-1.2,2.5-1.2,4.5
				v10h-1.6v-11.6c0-2.9-1.3-4.3-3.9-4.3c-1.8,0-3.1,0.5-3.9,1.6c-0.8,1-1.2,2.7-1.2,5v9.4h-1.5v-17h1.3l0.3,2.3h0.1
				c0.5-0.8,1.1-1.5,2-2c0.9-0.5,1.8-0.7,2.9-0.7c2.7,0,4.4,1,5.2,3h0.1c0.6-1,1.3-1.7,2.2-2.2c0.9-0.5,2-0.8,3.2-0.8
				c1.9,0,3.2,0.5,4.2,1.5c0.9,1,1.4,2.6,1.4,4.7v11.1H-1067z"/>
			<path class="st9" d="M-1058.6,304.2v11c0,1.7,0.4,3,1.1,3.7c0.7,0.8,1.8,1.2,3.3,1.2c2,0,3.5-0.5,4.5-1.5c1-1,1.4-2.7,1.4-5v-9.4
				h1.5v17h-1.3l-0.3-2.3h-0.1c-1.1,1.8-3.1,2.7-5.9,2.7c-3.9,0-5.8-2.1-5.8-6.2v-11.1H-1058.6z"/>
			<path class="st9" d="M-1034.9,303.8c1.2,0,2.3,0.2,3.2,0.7c0.9,0.4,1.7,1.2,2.4,2.3h0.1c-0.1-1.3-0.1-2.6-0.1-3.9v-6.1h1.5v24.3
				h-1l-0.4-2.6h-0.1c-1.3,1.9-3.1,2.9-5.6,2.9c-2.3,0-4.1-0.7-5.4-2.2c-1.2-1.5-1.9-3.6-1.9-6.4c0-2.9,0.6-5.2,1.8-6.7
				C-1039,304.6-1037.2,303.8-1034.9,303.8z M-1034.9,305.2c-1.9,0-3.2,0.7-4.2,2c-0.9,1.3-1.4,3.2-1.4,5.7c0,4.8,1.9,7.2,5.6,7.2
				c1.9,0,3.3-0.6,4.2-1.7c0.9-1.1,1.3-3,1.3-5.5v-0.3c0-2.6-0.4-4.5-1.3-5.7C-1031.5,305.8-1032.9,305.2-1034.9,305.2z"/>
			<path class="st9" d="M-1011.8,321.2l-0.4-2.7h-0.1c-0.9,1.1-1.7,1.9-2.6,2.3c-0.9,0.5-2,0.7-3.2,0.7c-1.7,0-3-0.4-3.9-1.3
				c-0.9-0.9-1.4-2-1.4-3.5c0-1.7,0.7-2.9,2.1-3.9c1.4-0.9,3.4-1.4,6-1.5l3.2-0.1v-1.1c0-1.6-0.3-2.8-1-3.7
				c-0.7-0.8-1.7-1.2-3.2-1.2c-1.6,0-3.2,0.4-4.9,1.3l-0.6-1.3c1.9-0.9,3.7-1.3,5.5-1.3c1.9,0,3.3,0.5,4.2,1.5s1.4,2.5,1.4,4.5v11.3
				H-1011.8z M-1018,320.1c1.8,0,3.2-0.5,4.3-1.6c1-1,1.6-2.5,1.6-4.3v-1.7l-3,0.1c-2.4,0.1-4.1,0.5-5.1,1.1c-1,0.6-1.5,1.6-1.5,2.9
				c0,1.1,0.3,1.9,1,2.5C-1020.1,319.8-1019.2,320.1-1018,320.1z"/>
			<path class="st9" d="M-993.3,321.2v-11c0-1.7-0.4-3-1.1-3.7c-0.7-0.8-1.8-1.2-3.3-1.2c-2,0-3.5,0.5-4.5,1.5c-0.9,1-1.4,2.7-1.4,5
				v9.4h-1.5v-17h1.3l0.3,2.3h0.1c1.1-1.8,3.1-2.7,5.9-2.7c3.9,0,5.8,2.1,5.8,6.2v11.1H-993.3z"/>
			<path class="st9" d="M-979.5,321.5c-2.4,0-4.3-0.8-5.7-2.3s-2.1-3.7-2.1-6.4c0-2.8,0.7-5,2.1-6.6c1.4-1.6,3.4-2.4,5.9-2.4
				c1.5,0,2.9,0.3,4.2,0.8l-0.4,1.4c-1.5-0.5-2.7-0.7-3.8-0.7c-2.1,0-3.7,0.6-4.7,1.9c-1.1,1.3-1.6,3.1-1.6,5.6
				c0,2.3,0.5,4.1,1.6,5.4c1.1,1.3,2.6,1.9,4.5,1.9c1.5,0,3-0.3,4.3-0.8v1.4C-976.3,321.2-977.7,321.5-979.5,321.5z M-977.8,325.7
				c0,1-0.4,1.8-1.1,2.4c-0.7,0.5-1.7,0.8-2.9,0.8c-0.7,0-1.2-0.1-1.5-0.2v-1.4c0.3,0.1,0.8,0.2,1.4,0.2c0.8,0,1.4-0.1,1.9-0.4
				c0.4-0.3,0.6-0.7,0.6-1.2c0-1-1-1.6-3-1.9l1.5-2.7h1.5l-1,1.8C-978.7,323.4-977.8,324.3-977.8,325.7z"/>
			<path class="st9" d="M-960.7,321.2l-0.4-2.7h-0.1c-0.9,1.1-1.7,1.9-2.6,2.3c-0.9,0.5-2,0.7-3.2,0.7c-1.7,0-3-0.4-3.9-1.3
				c-0.9-0.9-1.4-2-1.4-3.5c0-1.7,0.7-2.9,2.1-3.9c1.4-0.9,3.4-1.4,6-1.5l3.2-0.1v-1.1c0-1.6-0.3-2.8-1-3.7
				c-0.7-0.8-1.7-1.2-3.2-1.2c-1.6,0-3.2,0.4-4.9,1.3l-0.6-1.3c1.9-0.9,3.7-1.3,5.5-1.3c1.9,0,3.3,0.5,4.2,1.5s1.4,2.5,1.4,4.5v11.3
				H-960.7z M-967,320.1c1.8,0,3.2-0.5,4.3-1.6c1-1,1.6-2.5,1.6-4.3v-1.7l-3,0.1c-2.4,0.1-4.1,0.5-5.1,1.1c-1,0.6-1.5,1.6-1.5,2.9
				c0,1.1,0.3,1.9,1,2.5C-969.1,319.8-968.2,320.1-967,320.1z"/>
			<path class="st9" d="M-933.9,321.2v-11c0-1.7-0.4-3-1.1-3.7c-0.7-0.8-1.8-1.2-3.3-1.2c-2,0-3.5,0.5-4.5,1.5c-0.9,1-1.4,2.7-1.4,5
				v9.4h-1.5v-17h1.3l0.3,2.3h0.1c1.1-1.8,3.1-2.7,5.9-2.7c3.9,0,5.8,2.1,5.8,6.2v11.1H-933.9z"/>
			<path class="st9" d="M-925.6,304.2v11c0,1.7,0.4,3,1.1,3.7c0.7,0.8,1.8,1.2,3.3,1.2c2,0,3.5-0.5,4.5-1.5c1-1,1.4-2.7,1.4-5v-9.4
				h1.5v17h-1.3l-0.3-2.3h-0.1c-1.1,1.8-3.1,2.7-5.9,2.7c-3.9,0-5.8-2.1-5.8-6.2v-11.1H-925.6z"/>
			<path class="st9" d="M-886.8,321.2V310c0-1.7-0.3-2.9-1-3.6c-0.6-0.8-1.6-1.1-3-1.1c-1.7,0-3,0.5-3.9,1.4c-0.8,1-1.2,2.5-1.2,4.5
				v10h-1.6v-11.6c0-2.9-1.3-4.3-3.9-4.3c-1.8,0-3.1,0.5-3.9,1.6c-0.8,1-1.2,2.7-1.2,5v9.4h-1.5v-17h1.3l0.3,2.3h0.1
				c0.5-0.8,1.1-1.5,2-2c0.9-0.5,1.8-0.7,2.9-0.7c2.7,0,4.4,1,5.2,3h0.1c0.6-1,1.3-1.7,2.2-2.2c0.9-0.5,2-0.8,3.2-0.8
				c1.9,0,3.2,0.5,4.2,1.5c0.9,1,1.4,2.6,1.4,4.7v11.1H-886.8z"/>
			<path class="st9" d="M-864.7,321.5c-2.4,0-4.3-0.8-5.7-2.3s-2.1-3.7-2.1-6.4c0-2.8,0.7-5,2.1-6.6c1.4-1.6,3.4-2.4,5.9-2.4
				c1.5,0,2.9,0.3,4.2,0.8l-0.4,1.4c-1.5-0.5-2.7-0.7-3.8-0.7c-2.1,0-3.7,0.6-4.7,1.9c-1.1,1.3-1.6,3.1-1.6,5.6
				c0,2.3,0.5,4.1,1.6,5.4c1.1,1.3,2.6,1.9,4.5,1.9c1.5,0,3-0.3,4.3-0.8v1.4C-861.5,321.2-862.9,321.5-864.7,321.5z"/>
			<path class="st9" d="M-854.7,321.2h-1.5v-24.3h1.5V321.2z"/>
			<path class="st9" d="M-849.2,299.4c0-1,0.3-1.5,1-1.5c0.3,0,0.6,0.1,0.8,0.4c0.2,0.3,0.3,0.6,0.3,1.1c0,0.5-0.1,0.8-0.3,1.1
				c-0.2,0.3-0.4,0.4-0.8,0.4C-848.9,301-849.2,300.5-849.2,299.4z M-847.5,321.2h-1.5v-17h1.5V321.2z"/>
			<path class="st9" d="M-835.7,321.5c-2.2,0-4-0.7-5.2-2.2c-1.2-1.5-1.8-3.6-1.8-6.4c0-2.9,0.6-5.1,1.8-6.6c1.2-1.6,3-2.4,5.3-2.4
				c2.5,0,4.3,0.9,5.5,2.7h0.1l0.3-2.4h1.3v24.7h-1.5v-6.5c0-1.3,0-2.6,0.1-3.9h-0.1C-831.2,320.5-833.1,321.5-835.7,321.5z
				 M-835.7,320.1c2.1,0,3.5-0.6,4.4-1.7c0.9-1.1,1.3-3,1.3-5.7v-0.2c0-2.6-0.4-4.4-1.3-5.5c-0.9-1.1-2.3-1.7-4.2-1.7
				c-1.8,0-3.2,0.6-4.2,1.9c-1,1.3-1.4,3.2-1.4,5.7c0,2.4,0.5,4.2,1.4,5.4C-838.8,319.5-837.5,320.1-835.7,320.1z"/>
			<path class="st9" d="M-821.4,304.2v11c0,1.7,0.4,3,1.1,3.7c0.7,0.8,1.8,1.2,3.3,1.2c2,0,3.5-0.5,4.5-1.5c1-1,1.4-2.7,1.4-5v-9.4
				h1.5v17h-1.3l-0.3-2.3h-0.1c-1.1,1.8-3.1,2.7-5.9,2.7c-3.9,0-5.8-2.1-5.8-6.2v-11.1H-821.4z"/>
			<path class="st9" d="M-797,321.5c-2.5,0-4.4-0.8-5.8-2.3c-1.4-1.5-2.1-3.7-2.1-6.4c0-2.7,0.7-4.9,2-6.5c1.3-1.6,3.1-2.4,5.4-2.4
				c2,0,3.6,0.7,4.7,2.1c1.2,1.4,1.7,3.3,1.7,5.7v1.2h-12.2c0,2.3,0.6,4.1,1.6,5.3c1.1,1.2,2.6,1.8,4.6,1.8c1,0,1.8-0.1,2.6-0.2
				c0.7-0.1,1.7-0.4,2.8-0.9v1.4c-1,0.4-1.8,0.7-2.7,0.9S-796,321.5-797,321.5z M-797.5,305.2c-1.6,0-2.9,0.5-3.9,1.6
				c-1,1.1-1.6,2.6-1.7,4.7h10.5c0-2-0.4-3.5-1.3-4.6C-794.8,305.8-795.9,305.2-797.5,305.2z"/>
			<path class="st9" d="M-786.6,319.9c0-1,0.4-1.5,1.2-1.5c0.9,0,1.3,0.5,1.3,1.5c0,1-0.4,1.5-1.3,1.5
				C-786.2,321.5-786.6,321-786.6,319.9z"/>
		</g>
	</g>
</g>
<rect x="-644.3" y="-107.6" class="st1" width="472" height="472"/>
<g>
	<g>
		<polygon class="st2" points="-405,81 -604.6,81 -604.6,142.4 -405,142.4 -405,167.5 -337.3,111.7 -405,55.9 		"/>
		<rect x="-604.6" y="5.6" class="st2" width="110.3" height="61.4"/>
		<rect x="-604.6" y="156.4" class="st2" width="110.3" height="61.4"/>
		<circle class="st8" cx="-437.7" cy="228.6" r="25.8"/>
		<circle class="st8" cx="-285.7" cy="228.6" r="25.8"/>
		<g>
			<path class="st9" d="M-214.5,107.3h-34.2c-10.7,0-19.5-8.7-19.5-19.5V27c-18.4-14-53.4-24.6-53.4-24.6h-177.8c0,0-4.6,0-8.2,3.8
				c-3.8,4-3.8,8.8-3.8,8.8v66l106.3,0V55.9l67.8,55.8l-67.8,55.8v-25.1l-106.3,0v74.1c0,0,0.1,4.6,3.8,8.3c3.8,3.8,7.8,3.8,7.8,3.8
				h26.1c0,0,0,0,0,0c0-20.1,16.3-36.5,36.5-36.5c20.1,0,35.2,16.3,35.2,36.5c0,0,80.3,0,80.3,0c0-20.1,15.1-36.5,35.2-36.5
				s36.5,16.3,36.5,36.5c0,0,0,0,0,0h26.1c0,0,3.8,0,7.8-3.8c3.8-3.7,3.8-8.3,3.8-8.3v-82.9C-212.3,133.6-211.1,123.1-214.5,107.3z"
				/>
			<path class="st9" d="M-248.7,98.5h31.9c-5.6-18.6-17.5-42-42.6-64.2v53.6C-259.4,93.7-254.6,98.5-248.7,98.5z"/>
		</g>
	</g>
</g>
<g>
	<g>
		<path class="st9" d="M-484.4,795.6c-16.3,0-29.5-13.2-29.5-29.5s13.2-29.5,29.5-29.5s29.5,13.2,29.5,29.5
			S-468.1,795.6-484.4,795.6z"/>
	</g>
	<g>
		<path class="st9" d="M-332.4,795.6c-16.3,0-29.5-13.2-29.5-29.5s13.2-29.5,29.5-29.5s29.5,13.2,29.5,29.5
			S-316.1,795.6-332.4,795.6z"/>
	</g>
	<g>
		<path class="st9" d="M-261.2,643.8h-34.2c-10.7,0-19.5-8.7-19.5-19.5v-60.8c-18.4-14-53.4-24.6-53.4-24.6H-546c0,0-4.6,0-8.2,3.8
			c-3.8,4-3.8,8.8-3.8,8.8V607c0,0,0.4,3.9,4,7.5c2.8,2.8,8.5,3,8.5,3l114.8,0v-25.1l67.8,55.8l-67.8,55.8v-25.1l-114.1,0
			c0,0-5-0.2-9.2,4c-3.7,3.7-4,7.8-4,7.8V753c0,0,0.1,4.6,3.8,8.3c3.8,3.8,7.8,3.8,7.8,3.8h26.1c0,0-1,0-1,0
			c0-20.1,17.3-36.5,37.5-36.5s36.2,16.3,36.2,36.5c0,0,78.3,0,78.3,0c0-20.1,16.1-36.5,36.2-36.5c20.1,0,37.5,16.3,37.5,36.5
			c0,0-1,0-1,0h26.1c0,0,3.8,0,7.8-3.8c3.8-3.7,3.8-8.3,3.8-8.3v-82.9C-258.9,670.1-257.8,659.6-261.2,643.8z"/>
		<path class="st9" d="M-295.4,635.1h31.9c-5.6-18.6-17.5-42-42.6-64.2v53.6C-306,630.3-301.2,635.1-295.4,635.1z"/>
	</g>
</g>
<g>
	<g>
		<path class="st9" d="M73.6,795.6c-16.3,0-29.5-13.2-29.5-29.5s13.2-29.5,29.5-29.5s29.5,13.2,29.5,29.5S89.9,795.6,73.6,795.6z"/>
	</g>
	<g>
		<path class="st9" d="M225.6,795.6c-16.3,0-29.5-13.2-29.5-29.5s13.2-29.5,29.5-29.5s29.5,13.2,29.5,29.5S241.9,795.6,225.6,795.6z
			"/>
	</g>
	<g>
		<path class="st9" d="M296.8,643.8h-34.2c-10.7,0-19.5-8.7-19.5-19.5v-60.8c-18.4-14-53.4-24.6-53.4-24.6H12c0,0-4.6,0-8.2,3.8
			c-3.8,4-3.8,8.8-3.8,8.8V607c0,0,0.4,3.9,4,7.5c2.8,2.8,8.5,3,8.5,3l114.8,0v-25.1l67.8,55.8L127.3,704v-25.1l-114.1,0
			c0,0-5-0.2-9.2,4c-3.7,3.7-4,7.8-4,7.8V753c0,0,0.1,4.6,3.8,8.3c3.8,3.8,7.8,3.8,7.8,3.8h26.1c0,0-1,0-1,0
			c0-20.1,17.3-36.5,37.5-36.5s36.2,16.3,36.2,36.5c0,0,78.3,0,78.3,0c0-20.1,16.1-36.5,36.2-36.5s37.5,16.3,37.5,36.5c0,0-1,0-1,0
			h26.1c0,0,3.8,0,7.8-3.8c3.8-3.7,3.8-8.3,3.8-8.3v-82.9C299.1,670.1,300.2,659.6,296.8,643.8z"/>
		<path class="st9" d="M262.6,635.1h31.9c-5.6-18.6-17.5-42-42.6-64.2v53.6C251.9,630.3,256.7,635.1,262.6,635.1z"/>
	</g>
</g>
<g>
	<g>
		<path class="st9" d="M73.6,256.7c-16.3,0-29.5-13.2-29.5-29.5s13.2-29.5,29.5-29.5s29.5,13.2,29.5,29.5S89.9,256.7,73.6,256.7z"/>
	</g>
	<g>
		<path class="st9" d="M225.6,256.7c-16.3,0-29.5-13.2-29.5-29.5s13.2-29.5,29.5-29.5s29.5,13.2,29.5,29.5S241.9,256.7,225.6,256.7z
			"/>
	</g>
	<g>
		<path class="st9" d="M296.8,104.9h-34.2c-10.7,0-19.5-8.7-19.5-19.5V24.6C224.8,10.6,189.7,0,189.7,0H12c0,0-4.6,0-8.2,3.8
			C0,7.7,0,12.6,0,12.6v55.6c0,0,0.4,3.9,4,7.5c2.8,2.8,8.5,3,8.5,3l114.8,0V53.5l67.8,55.8l-67.8,55.8V140l-114.1,0
			c0,0-5-0.2-9.2,4c-3.7,3.7-4,7.8-4,7.8v62.3c0,0,0.1,4.6,3.8,8.3c3.8,3.8,7.8,3.8,7.8,3.8h26.1c0,0-1,0-1,0
			c0-20.1,17.3-36.5,37.5-36.5s36.2,16.3,36.2,36.5c0,0,78.3,0,78.3,0c0-20.1,16.1-36.5,36.2-36.5s37.5,16.3,37.5,36.5c0,0-1,0-1,0
			h26.1c0,0,3.8,0,7.8-3.8c3.8-3.7,3.8-8.3,3.8-8.3v-82.9C299.1,131.2,300.2,120.7,296.8,104.9z"/>
		<path class="st9" d="M262.6,96.2h31.9c-5.6-18.6-17.5-42-42.6-64.2v53.6C251.9,91.4,256.7,96.2,262.6,96.2z"/>
	</g>
</g>
<rect x="-1775.9" y="416" class="st0" width="1056.8" height="501.3"/>
<g>
	<g>
		<g>
			<path class="st9" d="M-1626.9,795.6c-16.3,0-29.5-13.2-29.5-29.5s13.2-29.5,29.5-29.5s29.5,13.2,29.5,29.5
				S-1610.6,795.6-1626.9,795.6z"/>
		</g>
		<g>
			<path class="st9" d="M-1474.8,795.6c-16.3,0-29.5-13.2-29.5-29.5s13.2-29.5,29.5-29.5s29.5,13.2,29.5,29.5
				S-1458.6,795.6-1474.8,795.6z"/>
		</g>
		<g>
			<path class="st9" d="M-1403.7,643.8h-34.2c-10.7,0-19.5-8.7-19.5-19.5v-60.8c-18.4-14-53.4-24.6-53.4-24.6h-177.8
				c0,0-4.6,0-8.2,3.8c-3.8,4-3.8,8.8-3.8,8.8V607c0,0,0.4,3.9,4,7.5c2.8,2.8,8.5,3,8.5,3l114.8,0v-25.1l67.8,55.8l-67.8,55.8v-25.1
				l-114.1,0c0,0-5-0.2-9.2,4c-3.7,3.7-4,7.8-4,7.8V753c0,0,0.1,4.6,3.8,8.3c3.8,3.8,7.8,3.8,7.8,3.8h26.1c0,0-1,0-1,0
				c0-20.1,17.3-36.5,37.5-36.5c20.1,0,36.2,16.3,36.2,36.5c0,0,78.3,0,78.3,0c0-20.1,16.1-36.5,36.2-36.5
				c20.1,0,37.5,16.3,37.5,36.5c0,0-1,0-1,0h26.1c0,0,3.8,0,7.8-3.8c3.8-3.7,3.8-8.3,3.8-8.3v-82.9
				C-1401.4,670.1-1400.2,659.6-1403.7,643.8z"/>
			<path class="st9" d="M-1437.8,635.1h31.9c-5.6-18.6-17.5-42-42.6-64.2v53.6C-1448.5,630.3-1443.7,635.1-1437.8,635.1z"/>
		</g>
	</g>
	<g>
		<g>
			<path class="st9" d="M-1314.9,707.8h-16v-76.5h43.9v13.3h-27.9v19.7h26v13.2h-26V707.8z"/>
			<path class="st9" d="M-1240.6,648.2c2.2,0,4,0.2,5.4,0.5l-1.2,15c-1.3-0.3-2.9-0.5-4.7-0.5c-5.1,0-9.1,1.3-11.9,3.9
				c-2.8,2.6-4.3,6.3-4.3,11v29.8h-16v-58.5h12.1l2.4,9.8h0.8c1.8-3.3,4.3-5.9,7.4-7.9C-1247.6,649.2-1244.2,648.2-1240.6,648.2z"/>
			<path class="st9" d="M-1198.1,708.9c-9.4,0-16.8-2.6-22.1-7.8c-5.3-5.2-8-12.6-8-22.1c0-9.8,2.5-17.4,7.4-22.7
				c4.9-5.4,11.7-8,20.3-8c8.3,0,14.7,2.4,19.3,7.1c4.6,4.7,6.9,11.2,6.9,19.5v7.7h-37.8c0.2,4.5,1.5,8.1,4,10.6
				c2.5,2.5,6,3.8,10.6,3.8c3.5,0,6.9-0.4,10-1.1c3.1-0.7,6.4-1.9,9.8-3.5v12.4c-2.8,1.4-5.8,2.4-9,3.1
				C-1189.6,708.5-1193.5,708.9-1198.1,708.9z M-1200.3,659.5c-3.4,0-6,1.1-8,3.2c-1.9,2.1-3,5.2-3.3,9.1h22.4
				c-0.1-3.9-1.1-7-3.1-9.1C-1194.2,660.6-1196.9,659.5-1200.3,659.5z"/>
			<path class="st9" d="M-1136.5,696.1c2.8,0,6.1-0.6,10.1-1.8v11.9c-4,1.8-8.9,2.7-14.7,2.7c-6.4,0-11-1.6-14-4.8
				s-4.4-8.1-4.4-14.5v-28.2h-7.6v-6.8l8.8-5.3l4.6-12.4h10.2v12.5h16.4v12h-16.4v28.2c0,2.3,0.6,3.9,1.9,5
				C-1140.3,695.6-1138.6,696.1-1136.5,696.1z"/>
			<path class="st9" d="M-1088.2,708.9c-9.4,0-16.8-2.6-22.1-7.8c-5.3-5.2-8-12.6-8-22.1c0-9.8,2.5-17.4,7.4-22.7
				c4.9-5.4,11.7-8,20.3-8c8.3,0,14.7,2.4,19.3,7.1c4.6,4.7,6.9,11.2,6.9,19.5v7.7h-37.8c0.2,4.5,1.5,8.1,4,10.6
				c2.5,2.5,6,3.8,10.6,3.8c3.5,0,6.9-0.4,10-1.1c3.1-0.7,6.4-1.9,9.8-3.5v12.4c-2.8,1.4-5.8,2.4-9,3.1
				C-1079.7,708.5-1083.6,708.9-1088.2,708.9z M-1090.4,659.5c-3.4,0-6,1.1-8,3.2c-1.9,2.1-3,5.2-3.3,9.1h22.4
				c-0.1-3.9-1.1-7-3.1-9.1C-1084.3,660.6-1087,659.5-1090.4,659.5z"/>
			<path class="st9" d="M-1006.2,707.8h-16v-76.5h43.9v13.3h-27.9v19.7h26v13.2h-26V707.8z"/>
			<path class="st9" d="M-927.4,707.8l-3.1-8h-0.4c-2.7,3.4-5.5,5.7-8.3,7c-2.8,1.3-6.6,2-11.1,2c-5.6,0-10-1.6-13.3-4.8
				c-3.2-3.2-4.8-7.8-4.8-13.7c0-6.2,2.2-10.8,6.5-13.7c4.3-2.9,10.9-4.6,19.7-4.9l10.2-0.3v-2.6c0-5.9-3-8.9-9.1-8.9
				c-4.7,0-10.2,1.4-16.5,4.2l-5.3-10.8c6.7-3.5,14.2-5.3,22.4-5.3c7.9,0,13.9,1.7,18.1,5.1c4.2,3.4,6.3,8.6,6.3,15.6v39H-927.4z
				 M-932.1,680.7l-6.2,0.2c-4.6,0.1-8.1,1-10.4,2.5c-2.3,1.5-3.4,3.9-3.4,7c0,4.5,2.6,6.8,7.7,6.8c3.7,0,6.7-1.1,8.9-3.2
				c2.2-2.1,3.3-5,3.3-8.5V680.7z M-949.9,642.8v-1.4c6-7,10.1-12.2,12.3-15.8h17.9v1.1c-1.8,1.8-4.9,4.5-9.3,8.1
				c-4.4,3.6-7.8,6.2-10.3,8H-949.9z"/>
			<path class="st9" d="M-876.1,708.9c-18.2,0-27.3-10-27.3-30c0-9.9,2.5-17.5,7.4-22.8c5-5.3,12.1-7.9,21.3-7.9
				c6.8,0,12.8,1.3,18.2,4l-4.7,12.4c-2.5-1-4.9-1.8-7-2.5c-2.2-0.6-4.3-1-6.5-1c-8.3,0-12.5,5.9-12.5,17.7
				c0,11.4,4.2,17.2,12.5,17.2c3.1,0,5.9-0.4,8.5-1.2s5.2-2.1,7.9-3.8v13.7c-2.6,1.6-5.2,2.8-7.8,3.4
				C-868.7,708.5-872,708.9-876.1,708.9z"/>
			<path class="st9" d="M-845.4,634.1c0-5.2,2.9-7.8,8.7-7.8c5.8,0,8.7,2.6,8.7,7.8c0,2.5-0.7,4.4-2.2,5.8c-1.4,1.4-3.6,2.1-6.5,2.1
				C-842.5,642-845.4,639.4-845.4,634.1z M-828.7,707.8h-16v-58.5h16V707.8z"/>
			<path class="st9" d="M-796,707.8h-16v-81.5h16V707.8z"/>
		</g>
	</g>
</g>
<rect x="-1775.9" y="993.3" class="st0" width="1617.5" height="351.4"/>
<g>
	<g>
		<g>
			<path class="st9" d="M-973.7,1209.5h-16v-76.5h43.9v13.3h-27.9v19.7h26v13.2h-26V1209.5z"/>
			<path class="st9" d="M-899.4,1149.8c2.2,0,4,0.2,5.4,0.5l-1.2,15c-1.3-0.3-2.9-0.5-4.7-0.5c-5.1,0-9.1,1.3-11.9,3.9
				c-2.8,2.6-4.3,6.3-4.3,11v29.8h-16v-58.5h12.1l2.4,9.8h0.8c1.8-3.3,4.3-5.9,7.4-7.9C-906.4,1150.9-903.1,1149.8-899.4,1149.8z"/>
			<path class="st9" d="M-856.9,1210.5c-9.4,0-16.8-2.6-22.1-7.8c-5.3-5.2-8-12.6-8-22.1c0-9.8,2.5-17.4,7.4-22.7
				c4.9-5.4,11.7-8,20.3-8c8.3,0,14.7,2.4,19.3,7.1s6.9,11.2,6.9,19.5v7.7h-37.8c0.2,4.5,1.5,8.1,4,10.6c2.5,2.5,6,3.8,10.6,3.8
				c3.5,0,6.9-0.4,10-1.1c3.1-0.7,6.4-1.9,9.8-3.5v12.4c-2.8,1.4-5.8,2.4-9,3.1C-848.5,1210.2-852.4,1210.5-856.9,1210.5z
				 M-859.2,1161.2c-3.4,0-6,1.1-8,3.2c-1.9,2.1-3,5.2-3.3,9.1h22.4c-0.1-3.9-1.1-7-3.1-9.1
				C-853.1,1162.3-855.8,1161.2-859.2,1161.2z"/>
			<path class="st9" d="M-795.4,1197.8c2.8,0,6.1-0.6,10.1-1.8v11.9c-4,1.8-8.9,2.7-14.7,2.7c-6.4,0-11-1.6-14-4.8
				c-2.9-3.2-4.4-8.1-4.4-14.5v-28.2h-7.6v-6.8l8.8-5.3l4.6-12.4h10.2v12.5h16.4v12h-16.4v28.2c0,2.3,0.6,3.9,1.9,5
				C-799.2,1197.3-797.5,1197.8-795.4,1197.8z"/>
			<path class="st9" d="M-747,1210.5c-9.4,0-16.8-2.6-22.1-7.8c-5.3-5.2-8-12.6-8-22.1c0-9.8,2.5-17.4,7.4-22.7
				c4.9-5.4,11.7-8,20.3-8c8.3,0,14.7,2.4,19.3,7.1s6.9,11.2,6.9,19.5v7.7h-37.8c0.2,4.5,1.5,8.1,4,10.6c2.5,2.5,6,3.8,10.6,3.8
				c3.5,0,6.9-0.4,10-1.1c3.1-0.7,6.4-1.9,9.8-3.5v12.4c-2.8,1.4-5.8,2.4-9,3.1C-738.6,1210.2-742.5,1210.5-747,1210.5z
				 M-749.3,1161.2c-3.4,0-6,1.1-8,3.2c-1.9,2.1-3,5.2-3.3,9.1h22.4c-0.1-3.9-1.1-7-3.1-9.1
				C-743.2,1162.3-745.9,1161.2-749.3,1161.2z"/>
			<path class="st9" d="M-665.1,1209.5h-16v-76.5h43.9v13.3h-27.9v19.7h26v13.2h-26V1209.5z"/>
			<path class="st9" d="M-586.3,1209.5l-3.1-8h-0.4c-2.7,3.4-5.5,5.7-8.3,7c-2.8,1.3-6.6,2-11.1,2c-5.6,0-10-1.6-13.3-4.8
				c-3.2-3.2-4.8-7.8-4.8-13.7c0-6.2,2.2-10.8,6.5-13.7c4.3-2.9,10.9-4.6,19.7-4.9l10.2-0.3v-2.6c0-5.9-3-8.9-9.1-8.9
				c-4.7,0-10.2,1.4-16.5,4.2l-5.3-10.8c6.7-3.5,14.2-5.3,22.4-5.3c7.9,0,13.9,1.7,18.1,5.1c4.2,3.4,6.3,8.6,6.3,15.6v39H-586.3z
				 M-591,1182.4l-6.2,0.2c-4.6,0.1-8.1,1-10.4,2.5c-2.3,1.5-3.4,3.9-3.4,7c0,4.5,2.6,6.8,7.7,6.8c3.7,0,6.7-1.1,8.9-3.2
				c2.2-2.1,3.3-5,3.3-8.5V1182.4z M-608.8,1144.5v-1.4c6-7,10.1-12.2,12.3-15.8h17.9v1.1c-1.8,1.8-4.9,4.5-9.3,8.1
				c-4.4,3.6-7.8,6.2-10.3,8H-608.8z"/>
			<path class="st9" d="M-534.9,1210.5c-18.2,0-27.3-10-27.3-30c0-9.9,2.5-17.5,7.4-22.8c5-5.3,12.1-7.9,21.3-7.9
				c6.8,0,12.8,1.3,18.2,4l-4.7,12.4c-2.5-1-4.9-1.8-7-2.5c-2.2-0.6-4.3-1-6.5-1c-8.3,0-12.5,5.9-12.5,17.7
				c0,11.4,4.2,17.2,12.5,17.2c3.1,0,5.9-0.4,8.5-1.2s5.2-2.1,7.9-3.8v13.7c-2.6,1.6-5.2,2.8-7.8,3.4
				C-527.6,1210.2-530.9,1210.5-534.9,1210.5z"/>
			<path class="st9" d="M-504.2,1135.8c0-5.2,2.9-7.8,8.7-7.8c5.8,0,8.7,2.6,8.7,7.8c0,2.5-0.7,4.4-2.2,5.8
				c-1.4,1.4-3.6,2.1-6.5,2.1C-501.3,1143.7-504.2,1141.1-504.2,1135.8z M-487.6,1209.5h-16v-58.5h16V1209.5z"/>
			<path class="st9" d="M-454.9,1209.5h-16V1128h16V1209.5z"/>
		</g>
	</g>
	<g>
		<g>
			<path class="st9" d="M-1154.9,1062.1c2.8,0,8.6,0.4,15.4,3.3c5.1,2.1,9.8,4.3,12.9,5.7H-1461c1.2-1.5,3.4-3.8,7.3-5.9
				c4.8-2.7,8.7-2.9,10.1-2.9c0.4,0,0.7,0,0.7,0l0.1,0h0.1h285.3l0.1,0l0.1,0C-1157.3,1062.2-1156.4,1062.1-1154.9,1062.1
				 M-1154.9,1061.1c-1.7,0-2.6,0.1-2.6,0.1h-285.3c0,0-0.3,0-0.8,0c-1.7,0-5.7,0.3-10.6,3.1c-6.6,3.7-8.7,7.8-8.7,7.8h340.8
				c0,0-7.8-3.8-17-7.6C-1145.9,1061.6-1151.7,1061.1-1154.9,1061.1L-1154.9,1061.1z"/>
		</g>
		<path class="st9" d="M-1091.6,1102.4c-16.5-23.2-30.5-30.3-30.5-30.3h-340.8c0,0-7.5,9.8-12.6,29.2c-5.1,19.7-5.5,40.2-5.5,40.2
			h405.7C-1075.2,1141.5-1078.2,1121.3-1091.6,1102.4z M-1456.9,1127.4c-0.4,2-0.9,3.3-3.2,3.2c-2.4-0.1-6.8,0-9.2,0
			c-2.4,0-3-1.2-2.9-3.3c0.1-4.3,2-19.4,4.7-27.6c3.3-10,5.9-15.4,8.8-18.2c1.3-1.3,2.7-2.4,5.8-2.4c3,0,5.5,0,7.9,0
			c2.4,0,2.7,2.2,1.7,3.1c-3.8,3.7-8.3,15.8-9.7,20.6C-1455.3,1111.4-1456.2,1123.4-1456.9,1127.4z M-1348.1,1130.7h-98.3
			c0,0-3.1-0.7-3.1-2.7c0,0,0.3-48.8,21.3-48.8h80.1L-1348.1,1130.7z M-1204.3,1130.7h-137.1v-51.6h137.1V1130.7z M-1097.2,1130.7
			h-100.9l-0.1-51.6h61.6c20.3,10.9,35.8,32.2,43.1,49.4C-1092.7,1130.3-1097.2,1130.7-1097.2,1130.7z"/>
		<path class="st10" d="M-1117.3,1233.5c0,4.9,3.9,8.8,8.8,8.8h16.7c4.9,0,8.8-3.9,8.8-8.8l0,0c0-4.9-3.9-8.8-8.8-8.8h-16.7
			C-1113.3,1224.7-1117.3,1228.6-1117.3,1233.5L-1117.3,1233.5z"/>
		<path class="st10" d="M-1474.7,1233.5c0,4.9,3.9,8.8,8.8,8.8h16.7c4.9,0,8.8-3.9,8.8-8.8l0,0c0-4.9-3.9-8.8-8.8-8.8h-16.7
			C-1470.8,1224.7-1474.7,1228.6-1474.7,1233.5L-1474.7,1233.5z"/>
		<g>
			<path class="st9" d="M-1480.6,1149.9l-0.3-8.4c0,26.8,0.3,65.8,16.9,83.1h14.8c4.9,0,8.8,3.9,8.8,8.8h3.5
				c3.2-16.8,18-29.5,35.8-29.5c17.8,0,32.5,12.7,35.8,29.5h161.1v-83.6H-1480.6z M-1427.4,1203.3c0,8.2-7.4,7.2-7.4,7.2
				s-10.9,0-16.7,0c-5.8,0-5.8-6.4-5.8-6.4s0-23.9,0-31.9c0-8,7.4-7.9,7.4-7.9h15.4c0,0,7.2-0.3,7.2,7.1
				C-1427.4,1178.9-1427.4,1195.1-1427.4,1203.3z"/>
			<path class="st9" d="M-1075.2,1141.5h-0.4l0.4,8.4h-123v83.6h4c3.2-16.8,18-29.5,35.7-29.5c17.7,0,32.5,12.7,35.7,29.5h5.4
				c0-4.9,3.9-8.8,8.8-8.8h16.7c0.4,0,0.7,0,1,0.1C-1074,1206.4-1075.2,1163.7-1075.2,1141.5z M-1176.9,1168.7h-14.1
				c-2.4,0-4.3-1.9-4.3-4.3c0-2.4,1.9-4.3,4.3-4.3h14.1c2.4,0,4.4,1.9,4.4,4.3C-1172.6,1166.8-1174.5,1168.7-1176.9,1168.7z"/>
		</g>
		<path class="st9" d="M-1158.4,1204c-20.1,0-36.4,16.3-36.4,36.4c0,20.1,16.3,36.4,36.4,36.4c20.1,0,36.4-16.3,36.4-36.4
			C-1122,1220.3-1138.3,1204-1158.4,1204z M-1158.4,1265.1c-13.6,0-24.7-11.1-24.7-24.7c0-13.6,11.1-24.7,24.7-24.7
			c13.6,0,24.7,11.1,24.7,24.7C-1133.7,1254-1144.7,1265.1-1158.4,1265.1z"/>
		<g>
			<circle class="st9" cx="-1158.4" cy="1240.4" r="11.9"/>
		</g>
		<path class="st9" d="M-1401.2,1204c-20.1,0-36.4,16.3-36.4,36.4c0,20.1,16.3,36.4,36.4,36.4c20.1,0,36.4-16.3,36.4-36.4
			C-1364.8,1220.3-1381.1,1204-1401.2,1204z M-1401.2,1265.1c-13.6,0-24.7-11.1-24.7-24.7c0-13.6,11.1-24.7,24.7-24.7
			c13.6,0,24.7,11.1,24.7,24.7C-1376.5,1254-1387.5,1265.1-1401.2,1265.1z"/>
		<g>
			<g>
				<circle class="st9" cx="-1401.2" cy="1240.4" r="11.9"/>
			</g>
		</g>
	</g>
</g>
</svg>
