<?xml version="1.0" encoding="utf-8"?>
<!-- Generator: Adobe Illustrator 20.0.0, SVG Export Plug-In . SVG Version: 6.00 Build 0)  -->
<svg version="1.1" id="Camada_1" xmlns="http://www.w3.org/2000/svg" xmlns:xlink="http://www.w3.org/1999/xlink" x="0px" y="0px"
	 viewBox="0 0 547.4 351.4" style="enable-background:new 0 0 547.4 351.4;" xml:space="preserve">
<style type="text/css">
	.st0{fill:#EF8E00;}
	.st1{fill:#EF8E00;stroke:#EF8E00;stroke-width:15;stroke-linecap:round;stroke-linejoin:round;stroke-miterlimit:10;}
	.st2{fill:#F5B043;}
	.st3{fill:#FFFFFF;stroke:#000000;stroke-width:6;stroke-linecap:round;stroke-linejoin:round;stroke-miterlimit:10;}
	.st4{fill:#FFFFFF;stroke:#000000;stroke-width:6;stroke-miterlimit:10;}
	.st5{fill:#67C1DC;}
	.st6{fill:none;stroke:#000000;stroke-width:6;stroke-linecap:round;stroke-linejoin:round;stroke-miterlimit:10;}
	.st7{fill:#EF8E00;stroke:#F5B043;stroke-width:2;stroke-miterlimit:10;}
	.st8{fill:#FFFFFF;stroke:#F5B043;stroke-width:7.5379;stroke-miterlimit:10;}
	.st9{fill:#FFFFFF;}
	.st10{fill:none;stroke:#FFFFFF;stroke-miterlimit:10;}
	.st11{fill:none;stroke:#EF8E00;stroke-miterlimit:10;}
</style>
<g>
	<path class="st11" d="M394.3,68H109c0,0-5-0.6-11.4,3c-6.6,3.7-8.7,7.8-8.7,7.8h340.8c0,0-7.8-3.8-17-7.6
		C402.3,66.8,394.3,68,394.3,68z"/>
	<path class="st0" d="M460.2,109.2c-16.5-23.2-30.5-30.3-30.5-30.3H88.9c0,0-7.5,9.8-12.6,29.2c-5.1,19.7-5.5,40.2-5.5,40.2h405.7
		C476.6,148.3,473.6,128,460.2,109.2z M94.8,134.2c-0.4,2-0.9,3.3-3.2,3.2c-2.4-0.1-6.8,0-9.2,0c-2.4,0-3-1.2-2.9-3.3
		c0.1-4.3,2-19.4,4.7-27.6c3.3-10,5.9-15.4,8.8-18.2c1.3-1.3,2.7-2.4,5.8-2.4c3,0,5.5,0,7.9,0c2.4,0,2.7,2.2,1.7,3.1
		c-3.8,3.7-8.3,15.8-9.7,20.6C96.5,118.1,95.6,130.2,94.8,134.2z M203.6,137.4h-98.3c0,0-3.1-0.7-3.1-2.7c0,0,0.3-48.8,21.3-48.8
		h80.1L203.6,137.4z M347.4,137.4H210.3V85.8h137.1V137.4z M454.5,137.4H353.7l-0.1-51.6h61.6c20.3,10.9,35.8,32.2,43.1,49.4
		C459,137.1,454.5,137.4,454.5,137.4z"/>
	<path class="st11" d="M434.5,240.2c0,4.9,3.9,8.8,8.8,8.8H460c4.9,0,8.8-3.9,8.8-8.8l0,0c0-4.9-3.9-8.8-8.8-8.8h-16.7
		C438.5,231.4,434.5,235.4,434.5,240.2L434.5,240.2z"/>
	<path class="st11" d="M77,240.2c0,4.9,3.9,8.8,8.8,8.8h16.7c4.9,0,8.8-3.9,8.8-8.8l0,0c0-4.9-3.9-8.8-8.8-8.8H85.8
		C81,231.4,77,235.4,77,240.2L77,240.2z"/>
	<g>
		<path class="st0" d="M71.1,156.7l-0.3-8.4c0,26.8,0.3,65.8,16.9,83.1h14.8c4.9,0,8.8,3.9,8.8,8.8h3.5c3.2-16.8,18-29.5,35.8-29.5
			c17.8,0,32.5,12.7,35.8,29.5h161.1v-83.6H71.1z M124.3,210.1c0,8.2-7.4,7.2-7.4,7.2s-10.9,0-16.7,0c-5.8,0-5.8-6.4-5.8-6.4
			s0-23.9,0-31.9c0-8,7.4-7.9,7.4-7.9h15.4c0,0,7.2-0.3,7.2,7.1C124.3,185.6,124.3,201.8,124.3,210.1z"/>
		<path class="st0" d="M476.6,148.3h-0.4l0.4,8.4h-123v83.6h4c3.2-16.8,18-29.5,35.7-29.5c17.7,0,32.5,12.7,35.7,29.5h5.4
			c0-4.9,3.9-8.8,8.8-8.8H460c0.4,0,0.7,0,1,0.1C477.8,213.1,476.6,170.4,476.6,148.3z M374.8,175.5h-14.1c-2.4,0-4.3-1.9-4.3-4.3
			s1.9-4.3,4.3-4.3h14.1c2.4,0,4.4,1.9,4.4,4.3S377.2,175.5,374.8,175.5z"/>
	</g>
	<path class="st0" d="M393.4,210.7c-20.1,0-36.4,16.3-36.4,36.4c0,20.1,16.3,36.4,36.4,36.4c20.1,0,36.4-16.3,36.4-36.4
		C429.8,227,413.5,210.7,393.4,210.7z M393.4,271.8c-13.6,0-24.7-11.1-24.7-24.7c0-13.6,11.1-24.7,24.7-24.7
		c13.6,0,24.7,11.1,24.7,24.7C418.1,260.8,407,271.8,393.4,271.8z"/>
	<g>
		<circle class="st0" cx="393.4" cy="247.1" r="11.9"/>
	</g>
	<path class="st0" d="M150.6,210.7c-20.1,0-36.4,16.3-36.4,36.4c0,20.1,16.3,36.4,36.4,36.4c20.1,0,36.4-16.3,36.4-36.4
		C187,227,170.7,210.7,150.6,210.7z M150.6,271.8c-13.6,0-24.7-11.1-24.7-24.7c0-13.6,11.1-24.7,24.7-24.7
		c13.6,0,24.7,11.1,24.7,24.7C175.3,260.8,164.2,271.8,150.6,271.8z"/>
	<g>
		<circle class="st0" cx="150.6" cy="247.1" r="11.9"/>
	</g>
</g>
</svg>
