<?xml version="1.0" encoding="utf-8"?>
<!-- Generator: Adobe Illustrator 20.0.0, SVG Export Plug-In . SVG Version: 6.00 Build 0)  -->
<svg version="1.1" id="Camada_1" xmlns="http://www.w3.org/2000/svg" xmlns:xlink="http://www.w3.org/1999/xlink" x="0px" y="0px"
	 viewBox="0 0 401.3 226" style="enable-background:new 0 0 401.3 226;" xml:space="preserve">
<style type="text/css">
	.st0{fill:#7A472A;}
	.st1{fill:#363838;}
	.st2{fill:#949636;}
	.st3{fill:#FBBB1E;}
	.st4{fill:#66C4D5;}
	.st5{fill:#E9454F;}
	.st6{fill:#E5AA13;}
	.st7{fill:#231F20;}
	.st8{fill:#73C1A1;}
	.st9{fill:#E5E4E4;}
	.st10{fill:#FFFFFF;}
	.st11{fill:#C7C6C6;}
	.st12{fill:#93CDB3;}
	.st13{fill:#50B792;}
	.st14{fill:#7287BF;}
	.st15{fill:#93A3CC;}
	.st16{fill:#506AB1;}
	.st17{fill:#BA7474;}
	.st18{fill:#CC9797;}
	.st19{fill:#B04F50;}
	.st20{fill:#4AAE45;}
	.st21{fill:#F9CB64;}
	.st22{fill:#F9DA95;}
	.st23{fill:#F7D694;}
	.st24{fill:#FBBB21;}
	.st25{fill:none;stroke:#FFFFFF;stroke-miterlimit:10;}
</style>
<g>
	<path class="st8" d="M348.6,93c0,20.9,1.5,67.1-26,67.1h-242c-27.5,0-27.8-41.3-27.8-67.1"/>
	<path class="st9" d="M314.4,42.4H65.9c0,0-5.5,7.2-9.2,21.3C53,78,52.7,93,52.7,93h295.8c0,0-2.2-14.8-11.9-28.5
		C324.6,47.6,314.4,42.4,314.4,42.4z"/>
	<g>
		<path class="st7" d="M110.9,138.5c-14.7,0-26.5,11.9-26.5,26.5c0,14.7,11.9,26.5,26.5,26.5c14.7,0,26.6-11.9,26.6-26.5
			C137.4,150.4,125.6,138.5,110.9,138.5L110.9,138.5z"/>
	</g>
	<path class="st10" d="M149.6,85.1H77.9c0,0-2.2-0.5-2.2-2c0,0,0.2-35.6,15.5-35.6h58.4"/>
	<rect x="154.4" y="47.5" class="st10" width="100" height="37.6"/>
	<path class="st10" d="M259,85.1l-0.1-37.6h44.9c14.8,7.9,26.1,23.5,31.4,36c0.6,1.4-2.7,1.6-2.7,1.6H259z"/>
	<path class="st11" d="M288.6,34.5h-208c0,0-3.6-0.4-8.3,2.2c-4.8,2.7-6.3,5.7-6.3,5.7h248.5c0,0-5.7-2.8-12.4-5.6
		C294.4,33.7,288.6,34.5,288.6,34.5z"/>
	<path class="st11" d="M78.9,47.5c-1.7,0-3.6,0-5.8,0c-2.2,0-3.3,0.8-4.2,1.7c-2.1,2.1-4,6-6.4,13.3c-2,6-3.4,17-3.4,20.1
		c0,1.5,0.4,2.4,2.1,2.4c1.7,0,5-0.1,6.7,0c1.7,0.1,2.1-0.9,2.4-2.3c0.5-2.9,1.2-11.7,2.9-17.9c1-3.5,4.3-12.4,7-15.1
		C80.9,49.1,80.7,47.4,78.9,47.5z"/>
	<path class="st12" d="M91.8,114.8c0,5.4,0,17.2,0,23.2c0,6-5.4,5.3-5.4,5.3s-7.9,0-12.2,0c-4.3,0-4.3-4.7-4.3-4.7s0-17.4,0-23.2
		c0-5.8,5.4-5.8,5.4-5.8h11.2C86.5,109.6,91.8,109.4,91.8,114.8z"/>
	<path class="st9" d="M317.9,160c0,3.5,2.9,6.4,6.4,6.4h12.1c3.5,0,6.4-2.9,6.4-6.4l0,0c0-3.5-2.9-6.4-6.4-6.4h-12.1
		C320.8,153.6,317.9,156.5,317.9,160L317.9,160z"/>
	<path class="st9" d="M57.3,160c0,3.5,2.9,6.4,6.4,6.4h12.1c3.5,0,6.4-2.9,6.4-6.4l0,0c0-3.5-2.9-6.4-6.4-6.4H63.7
		C60.1,153.6,57.3,156.5,57.3,160L57.3,160z"/>
	<path class="st11" d="M260.9,109.6c0,1.8,1.4,3.2,3.2,3.2h10.3c1.8,0,3.2-1.4,3.2-3.2l0,0c0-1.8-1.4-3.2-3.2-3.2h-10.3
		C262.3,106.5,260.9,107.9,260.9,109.6L260.9,109.6z"/>
	<rect x="254.4" y="99.1" class="st12" width="4.5" height="60.9"/>
	<polygon class="st13" points="348.6,99.1 53,99.1 52.7,93 348.3,93 	"/>
	<g>
		<path class="st7" d="M287.9,138.5c-14.7,0-26.5,11.9-26.5,26.5c0,14.7,11.9,26.5,26.5,26.5c14.7,0,26.5-11.9,26.5-26.5
			C314.5,150.4,302.6,138.5,287.9,138.5L287.9,138.5z"/>
	</g>
	<circle class="st9" cx="287.9" cy="165.1" r="18"/>
	<g>
		<circle class="st11" cx="287.9" cy="165.1" r="8.7"/>
	</g>
	<circle class="st9" cx="110.9" cy="165.1" r="18"/>
	<g>
		<g>
			<circle class="st11" cx="110.9" cy="165.1" r="8.7"/>
		</g>
	</g>
</g>
</svg>
